<?xml version="1.0" encoding="UTF-8"?>
<!DOCTYPE svg PUBLIC "-//W3C//DTD SVG 1.1//EN" "http://www.w3.org/Graphics/SVG/1.1/DTD/svg11.dtd">
<!-- Creator: CorelDRAW 2021 (64-Bit) -->
<svg xmlns="http://www.w3.org/2000/svg" xml:space="preserve" width="210mm" height="297mm" version="1.1" style="shape-rendering:geometricPrecision; text-rendering:geometricPrecision; image-rendering:optimizeQuality; fill-rule:evenodd; clip-rule:evenodd"
viewBox="0 0 21000 29700"
 xmlns:xlink="http://www.w3.org/1999/xlink"
 xmlns:xodm="http://www.corel.com/coreldraw/odm/2003">
 <defs>
  <style type="text/css">
   <![CDATA[
    .fil0 {fill:#393185;fill-rule:nonzero}
   ]]>
  </style>
 </defs>
 <g id="Слой_x0020_1">
  <metadata id="CorelCorpID_0Corel-Layer"/>
  <g id="_1944947153872">
   <path class="fil0" d="M16755.57 18600.15l-62.84 -189.34c-148.83,-442.36 -636.64,-903.71 -1084.79,-1025.26l-1658.62 -453.1c-449.79,-122.37 -1091.41,42.17 -1420.5,371.24l-600.29 600.29c-2181.57,-589.49 -3892.26,-2300.23 -4480.96,-4481.38l600.32 -600.31c329.09,-329.09 493.61,-969.86 371.24,-1419.65l-452.28 -1659.44c-122.37,-448.97 -584.57,-936.78 -1026.08,-1083.97l-189.33 -63.66c-442.36,-147.19 -1073.23,1.67 -1402.29,330.73l-897.95 898.76c-160.42,159.57 -262.94,615.98 -262.94,617.64 -31.41,2850.89 1086.46,5597.58 3103.06,7614.21 2011.65,2011.65 4748.05,3127.88 7590.66,3103.91 14.87,0 484.51,-100.89 644.92,-260.48l897.94 -897.94c329.06,-329.05 477.89,-959.89 330.73,-1402.25z"/>
  </g>
  <g id="_1944947156416">
  </g>
  <g id="_1944947154304">
  </g>
  <g id="_1944947154112">
  </g>
  <g id="_1944947156560">
  </g>
  <g id="_1944947154496">
  </g>
  <g id="_1944947154448">
  </g>
  <g id="_1944947150800">
  </g>
  <g id="_1944947153776">
  </g>
  <g id="_1944947152192">
  </g>
  <g id="_1944947145280">
  </g>
  <g id="_1944947146816">
  </g>
  <g id="_1944947142448">
  </g>
  <g id="_1944947142256">
  </g>
  <g id="_1944947140960">
  </g>
  <g id="_1944947141536">
  </g>
 </g>
</svg>
